<svg xmlns="http://www.w3.org/2000/svg" width="528.172" height="213.551" viewBox="0 0 139.745 56.502" fill="#166534" xmlns:v="https://vecta.io/nano"><path d="M67.776 19.763c.065-.016-.391-2.495.245-4.06s.571-6.962.424-7.99.179-1.973.766-2.658.799-1.598.995-2.25.13-1.19 1.076-.995 5.104.88 6.897 1.696 7.908 1.908 8.365 2.006 3.93.228 6.701.245 9.457.342 12.49.669 3.815.44 6.473 1.092 7.745 2.348 11.234 4.109 6.587 3.31 9.098 5.234 4.142 3.033 5.544 5.25 1.533 2.984 1.614 4.207.114 3.196-.375 1.337-1.386-3.587-4.5-5.886-6.881-4.712-9.229-5.658-6.375-2.446-10.354-3.163-7.729-1.516-9.343-1.663-1.989-.554-2.674.669-.538 1.631-1.663.359-2.821-.913-3.294-.864-3.652.033-6.098 1.728-3.669 2.429-3.897 3.538-.049 1.631-.652 2.25-.717 1.027-2.152 1.582-2.495.701-3 1.598-.783 1.549-1.891 1.761-4.288.848-5.951.554-3.391-.946-4.19-1.631-2.103-2.038-2.381-2.446-.277-.62-.277-.62zm21.131.228c3.326 1.402 1.826 1.304 4.011 1.696s2.218-.163 2.772-.75 1.076-1.435 1.435-.554.978 1.826 1.859 1.957 2.544.587 2.87-.489.554-1.957.913-1.239 1.011 1.989 1.859 2.185 1.543.473 2.685.461 1.822.15 3.563-.438 2.364-.888 2.652-1.153.438-.646.715-1.211.404-.899 1.003-.161.692.761 1.245.761 1.015-.127 1.395-.507.461-.53.588-1.36.288-1.222.415-1.418.415-.242.507.208.15 1.637.046 1.891-.311 1.199-.761 1.764-1.084 1.464-1.925 1.96-1.441.749-2.779 1.164l-3.747 1.038c-.83.161-3.182.634-4.785.634s-3.966-.104-5.546-.334l-5.292-.692c-.957-.15-2.525-.484-4.047-.357s-2.813.081-3.54.911-.98 1.441-1.049 1.603-.496-.392-.646-.553-.749-.346-.519-1.337.553-1.833.288-2.594-.692-.876-1.061-.934-.669.035-1.015.127-.588 0 .38-.38 2.029-.553 2.79-1.118 1.407-.945 1.556-1.188.346-.945.576-.461a4.05 4.05 0 0 0 .586.873zm-23.113-7.402c-.522-3.131-.978-3.913-.228-5.413s.978-3.163 1.859-3.391 2.25-.13 1.37-1.467S66.805-.031 63.12.001 48.119.523 41.304 2.382s-7.762 1.858-9.392 3.326-4.337 4.728-4.989 5.772-2.772 2.283-1.826 5.087 1.891 5.576 5.022 7.468 7.24 2.739 10.566 3.131 9.229.717 11.446.717 8.283.228 10.24-.913 4.076-2.446 4.468-4.663-.261-4.044-.88-5.283.098-2.185.065-2.772-.228-1.663-.228-1.663z"/><path d="M84.391 22.877s-.799-.505-1.467-.13-1.092.701-1.239 1.533-.098.978.196 1.402.734.783 1.598.326 1.207-.897 1.304-1.304.016-1.109-.114-1.353l-.277-.473zM68.2 26.252s.946 2.576 1.304 5.022.75 4.142 1.141 4.272.261-.033.913 1.076 3.424 3.163 4.826 3.913 2.576 1.761 2.576 2.511-.326 1.467.62.75 1.663-1.304 2.413-.326 1.044 1.696 1.37 1.826.783.326.554-.033.327-.776.593-.73.744-.133.98.357.496.853.49.3-.11-1.631.467-1.188 2.77 1.602 3.976 2.744 3.848 2.495 5.315 4.631 2.576 3.261 2.674 4.5 2.462.522 1.304-1.141-3.261-4.337-4.892-5.756-1.37-1.027-1.353-1.386-1.386-.587-2.022-1.255-.554-.522-1.174-.766-1.631-.424-1.435-.929-.245-.473-.978-.88-1.712-.473-1.321-.799.717-1.125.391-.929-.603.473-2.022-.065-1.663-.31-2.756-.587-3.131-1.174-3.815-1.647l-3.033-2.103c-.391-.375-1.973-1.174-2.006-2.087l-.31-4.647-.717-3.718c-.245-.587-.946-2.593-1.549-3.065s-.717-.88-1.272-.326-1.19.538-1.255 1.386 0 1.076 0 1.076zm6.868.619s.594.605 1.533 1.188l2.588 1.608c.807.427 2.663 1.211 3.026 1.689s.484.68.553 1.118.011.945.542.334.876-.824 1.389-.824 1.003.144 1.401.634.484.79.992 1.118.692.398.559.156.571-.957 1.061-.807.709.202.859.484.346.951.369.311-.075-.905-.081-1.188.098-.594.455-.254 1.355.709 1.683.836 1.061.409 1.447.698.968.64 1.505.888.824.363 1.049.663.553.519.917.663.992.398 1.551.882 1.597 1.141 2.41 2.133 1.678 2.058 2.098 2.865.576 1.049.271 1.482-.427.842.011.461.634-.588.709-.784.271-.484.444-.242.536.548.536.801-.121.876.11.392.317-1.026.11-1.378-.755-1.453-1.424-2.15l-2.404-2.364c-.467-.409-1.055-.894-1.672-1.303s-1.706-1.113-1.891-1.418-1.072-.744-1.683-1.009-.715-.277-.813-.432-.438-.375-.767-.473-1.85-.179-1.799-.715.115-.588-.38-.703-1.545-.559-1.845-.588-.421-.115-.225-.386.311-.306.346-.542.058-.404-.179-.161-.317.323-.657.225-1.458-.196-2.087-.282-2.162-.138-3.032-.363-1.908-.715-2.634-1.038l-2.658-1.332c-.6-.34-1.96-1.038-2.427-1.47s-.553-.726-.876-.49-1.234.692-1.13.847l.138.219zm-12.678.283l-1.268.53s-.023-.161-.53.461-1.591 1.245-3.551 1.845-5.05 1.476-5.488 2.144-2.536 3.136-3.689 5.073l-1.372 2.462a2.24 2.24 0 0 1-.3.876c-.193.349-1.257 2.623-2.191 2.784s-1.81.069-2.237-.035-.823-.151-.554.09.693.546.045.489-1.308-.192-2.03-.375-1.744-.296-1.986-.296-.202.075-.156.248.254.254-.288.248-1.603.035-1.983-.133-.455-.248-.455.023.173.421-.34.45l-1.678.069c-.363-.011-.692-.058-.628.161s.069.202-.196.38-.455.081-1.36.478l-1.989.922c-.507.322-1.015.559-1.268.807s-.357.363-.669.277-.323.098-.277.306-.012.461-.219.94.144 1.234.455 1.545.473.317.19-.259-.242-.882.006-1.124.34-.329.45.011.363.409.248.052-.173-.478.11-.559.236-.11.392.075.45.196.265-.081-.012-.709.334-1.084 1.078-1.078 1.724-1.332l1.464-.502c.219-.075.334-.052.409.069s.236.115.507-.058 1.435-.461 1.868-.525l1.833-.323c.507-.023 1.158-.266 1.23-.06s.125.354.603.239 1.868-.138 2.173-.144.536-.115.749.104.502.669.801.484a7.67 7.67 0 0 1 1.435-.605l1.286-.409c.3-.087 1.384-.208.68.242s-1.326.519-.853.968.715.715.219 1.464-.611 1.049-.058.519 1.222-1.545 1.568-2.248.992-1.752 1.464-2.375 1.672-3.009 2.121-3.666 1.637-4.231 2.006-4.473 1.649-.934 2.26-.784 3.124.104 3.839-.208 2.882-.968 3.839-2.144 2.202-2.041 2.548-2.329.6-1.164 1.038-1.43.6-.576.807-.842.876-1.026.392-1.268-.853-.311-1.188.254-.427.703-.749.715-.772.265-1.107.473l-.703.392zm-16.456 1.74c-2.739.946-5.12 1.957-6.522 1.891l-3.766-.31c-.897.024-1.679.204-2.462.081s-.929-.155-1.174-.326a.78.78 0 0 0-.864-.049l-3.905 2.112c-.685.465-2.699 1.378-3.253 1.883s-1.459 1.076-1.761 1.5-.693.563-.921.685-.204.016-.505.31l-1.785 1.704c-.236.245-.701.489-.204-.171s.514-.832.546-1.003.293-.489.587-.84.375-.775-.09-.603-1.215.522-1.133.188-.082-.399-.522-.497-.929-.081-1.092.016-.432.196-.497-.122-.139-.644-.921-.791l-1.948-.424c-.277-.114-.391-.049-.44-.416s-.823-.636-1.321-.783-1.076-.057-1.182-.285-.913-.734-1.957-.758-1.264.049-1.394-.204-.832-.587-2.054-.742-2.226-.139-2.666.139-.929.424-1.19.97-.326.408-.391.889-.139.685-.245.408-.236-.799-.179-.929.024-.416-.212-.163-.75.685-.383.073 1.573-1.508 2.275-1.736 1.671-.538 2.503-.416 1.37.253 1.761.448.652.579.946.277.424-.367 1.41.171 1.826 1.011 2.503 1.15 1.419.538 1.614.53.644.049 1.198.359.872.326 1.239.644.652.522 1.092.554 1.19-.188 1.467.025.595.473 1.06.188 2.902-1.198 3.93-1.9l2.804-1.997c.481-.44 2.022-1.557 2.593-1.679s2.568-.652 3.383-1.084 2.397-.514 3.302-.473 2.332.481 3.294.334 3.343-.269 3.701-.106 5.525.074 5.29.64c-.095.229-1.556.64-1.556.64z"/></svg>
